<svg xmlns="http://www.w3.org/2000/svg" xmlns:xlink="http://www.w3.org/1999/xlink" viewBox="0 0 823.504 230.49"><defs><style>.cls-1{fill:#fff;}.cls-2{fill:url(#linear-gradient);}.cls-3{fill:url(#linear-gradient-2);}.cls-4{fill:#a345f4;}</style><linearGradient id="linear-gradient" x1="64.26" y1="63.584" x2="141.156" y2="140.48" gradientUnits="userSpaceOnUse"><stop offset="0.1" stop-color="#a345f4"/><stop offset="1" stop-color="#52009b"/></linearGradient><linearGradient id="linear-gradient-2" x1="45.369" y1="82.475" x2="122.265" y2="159.371" xlink:href="#linear-gradient"/></defs><g id="Layer_2" data-name="Layer 2"><g id="Layer_1-2" data-name="Layer 1"><path class="cls-1" d="M191.677,38.967h43.817c22.506,0,37.784,12.708,37.784,32.907,0,23.085-17.425,33.677-38.318,33.677H214.6v39.684h-22.92ZM214.6,87.26h17.48c10.6,0,18.088-4.092,18.088-14.943,0-10.961-7.9-15.059-17.609-15.059H214.6Z"/><path class="cls-1" d="M283.892,32.72h22.017v19.7H283.892Zm0,32.732h22.017v79.783H283.892Z"/><path class="cls-1" d="M343.717,138.171v37.62H321.836V84.683c0-6.456,0-12.83-.154-19.231h21.323a90.578,90.578,0,0,1,.712,9.938c3.411-5.857,10.508-11.787,23.118-11.787,17.858,0,31.673,14.989,31.673,39.736,0,28.153-15.426,43.746-34.691,43.746C352.6,147.085,346.747,142.838,343.717,138.171Zm32.448-33.98c0-14.624-5.9-22.877-16.375-22.877-12.5,0-16.939,8.051-16.939,24.128,0,15.226,4.1,24.086,16,24.086C370.5,129.528,376.165,120.442,376.165,104.191Z"/><path class="cls-1" d="M428.3,110.067c.02,9.98,5,19.731,15.963,19.731,9.167,0,11.783-3.69,13.873-8.518H480.17c-2.821,9.766-11.5,25.805-36.487,25.805-26.192,0-37.556-19.65-37.556-40.582,0-25.027,12.8-42.9,38.343-42.9,27.31,0,36.6,19.821,36.6,39.738a48.992,48.992,0,0,1-.29,6.726ZM459.013,96.5c-.154-9.29-3.853-17.106-14.581-17.106-10.549,0-14.794,7.3-15.673,17.106Z"/><path class="cls-1" d="M494.935,38.967h73.931V57.8H517.3V83.838H565.6v18.833H517.3v42.564H494.935Z"/><path class="cls-1" d="M578.546,145.235V32.72h22.019V145.235Z"/><path class="cls-1" d="M681.828,124.621c0,7.6.615,18.691,1.074,20.614H661.868a32.818,32.818,0,0,1-1.112-7.8c-2.881,4.483-8.29,9.648-22.355,9.648-19.173,0-27.261-12.646-27.261-25.021C611.14,103.888,625.687,95.5,649,95.5h11.349V90.627c0-5.672-2.035-11.25-12.246-11.25-9.3,0-11.328,3.962-12.343,9.74H614.826c1.193-14.177,9.933-25.65,34.11-25.514,21.3.135,32.892,8.484,32.892,27.474Zm-21.459-15.706H651.4c-13.265,0-18.187,4.063-18.187,11.755,0,5.776,3.533,10.64,11.447,10.64,13.989,0,15.71-9.758,15.71-20.3Z"/><path class="cls-1" d="M697.913,87.093c0-7.927-.017-14.968-.153-21.641h21.594c.288,1.789.578,9.706.578,14.007,3.508-9.118,11.989-15.783,25.515-15.856V84.681c-15.979-.414-25.515,3.9-25.515,25.77v34.784H697.913Z"/><path class="cls-1" d="M770.736,110.067c.019,9.98,5,19.731,15.962,19.731,9.167,0,11.785-3.69,13.873-8.518h22.037c-2.82,9.766-11.5,25.805-36.488,25.805-26.191,0-37.555-19.65-37.555-40.582,0-25.027,12.8-42.9,38.342-42.9,27.31,0,36.6,19.821,36.6,39.738a49.33,49.33,0,0,1-.288,6.726ZM801.45,96.5C801.3,87.212,797.6,79.4,786.87,79.4c-10.55,0-14.794,7.3-15.673,17.106Z"/><path class="cls-2" d="M97.274,23.5a53.956,53.956,0,0,0-9.166-.648C41.688,22.856,2.53,33.4,17.128,0-6.362,12.586-8.757,57.2,30.155,57.2h0c-.012.022-.026.043-.038.064H91.352a29.667,29.667,0,1,1,0,59.334H64.89a10.36,10.36,0,0,0-10.349,10.349v18.836A66.045,66.045,0,1,0,97.274,23.5Z"/><path class="cls-3" d="M91.352,97.285a10.35,10.35,0,1,0,0-20.7H23.143C4.216,76.585.07,64.946.07,64.946s-2.565,37.43,23.425,37.465a65.757,65.757,0,0,0,11.729,26.072v-1.532A29.7,29.7,0,0,1,64.89,97.285Z"/><path class="cls-4" d="M193.2,209.248c0-9.9,7.479-17.195,17.638-17.195a12.9,12.9,0,0,1,12.092,7.257l-5.76,2.462c-.968-2.42-3.915-4.179-7.213-4.179-5.453,0-10.246,4.84-10.246,11.258,0,4.443,3.122,8,8.267,8a8.866,8.866,0,0,0,5.848-2.242l.792-3.519h-7.784l1.231-5.5h14.031l-2.551,11.435a15.321,15.321,0,0,1-11.919,5.366C199.618,222.4,193.2,217.34,193.2,209.248Z"/><path class="cls-4" d="M242.054,203.443l.571-2.815h5.63l-4.706,21.242h-5.63l.616-2.639a8.006,8.006,0,0,1-6.377,3.167c-4.837,0-8.091-3.167-8.091-8.8,0-6.421,3.959-13.5,11.214-13.5A8.026,8.026,0,0,1,242.054,203.443Zm-12.137,9.015a4.623,4.623,0,0,0,4.7,4.971,6.315,6.315,0,0,0,4.882-2.507l1.628-7.389a5.872,5.872,0,0,0-4.969-2.462C232.511,205.071,229.917,208.543,229.917,212.458Z"/><path class="cls-4" d="M275.431,221.87l2.859-12.843a8.483,8.483,0,0,0,.176-1.407c0-1.626-1.407-2.549-3.035-2.549-1.715,0-3.341,1.231-4.441,2.462l-3.122,14.337h-5.629l2.857-12.843a7.509,7.509,0,0,0,.22-1.538c-.044-1.363-1.144-2.418-3.122-2.418-1.67,0-3.3,1.276-4.354,2.462l-3.167,14.337h-5.584l4.706-21.242h5.584l-.615,2.77c1.186-1.273,3.341-3.3,6.463-3.3,4.18,0,5.85,3.036,5.85,3.828v.087a9.466,9.466,0,0,1,7.345-3.915c3.211,0,6.068,1.936,6.068,5.411a9.207,9.207,0,0,1-.218,1.76l-3.212,14.6Z"/><path class="cls-4" d="M287.39,212.855c0-6.905,5.19-12.756,12.269-12.756,5.41,0,9.543,3.565,9.543,9.5a13.832,13.832,0,0,1-.439,3.43H292.974v.526c0,1.805,1.892,4.4,5.806,4.4a9.52,9.52,0,0,0,5.366-1.583L305.9,220.2a13.811,13.811,0,0,1-7.518,2.2C291.7,222.4,287.39,218.792,287.39,212.855Zm16.8-3.607v-.439c0-2.112-1.494-4.267-4.88-4.267a6.07,6.07,0,0,0-5.763,4.706Z"/><path class="cls-4" d="M310.078,218.571l3.123-3.738a10.731,10.731,0,0,0,7.434,3.343c1.891,0,3.077-1.1,3.077-2.243,0-3.123-10.774-2.287-10.774-8.663,0-3.7,3.077-7.171,8.751-7.171a12.7,12.7,0,0,1,9.015,3.475l-2.857,3.562a8.7,8.7,0,0,0-6.244-2.77c-1.981,0-3.081.968-3.081,2.068,0,2.683,10.775,2.067,10.775,8.531,0,4.048-3.386,7.433-9.191,7.433A13.882,13.882,0,0,1,310.078,218.571Z"/><path class="cls-4" d="M331.8,219.1a3.941,3.941,0,0,1,3.914-3.87,3.247,3.247,0,0,1,3.209,3.3,3.9,3.9,0,0,1-3.869,3.869A3.285,3.285,0,0,1,331.8,219.1Z"/><path class="cls-4" d="M361.266,221.87l5.232-23.836h-8.575l1.231-5.5h23.4l-1.187,5.5h-8.575l-5.235,23.836Z"/><path class="cls-4" d="M376.479,212.855c0-6.905,5.19-12.756,12.269-12.756,5.411,0,9.543,3.565,9.543,9.5a13.832,13.832,0,0,1-.439,3.43H382.064v.526c0,1.805,1.891,4.4,5.805,4.4a9.52,9.52,0,0,0,5.366-1.583l1.758,3.827a13.817,13.817,0,0,1-7.519,2.2C380.788,222.4,376.479,218.792,376.479,212.855Zm16.8-3.607v-.439c0-2.112-1.5-4.267-4.88-4.267a6.07,6.07,0,0,0-5.764,4.706Z"/><path class="cls-4" d="M400.8,212.723A12.374,12.374,0,0,1,413.154,200.1c4.354,0,7.168,1.76,8.62,4.18l-4.177,3.21a5.027,5.027,0,0,0-4.443-2.418c-4,0-6.684,3.386-6.684,7.387,0,3.211,2.375,4.971,5.321,4.971a5.9,5.9,0,0,0,4.443-2.112l3.033,3.738a10.984,10.984,0,0,1-8.047,3.343C404.886,222.4,400.8,218.529,400.8,212.723Z"/><path class="cls-4" d="M436.284,221.87l2.773-12.753a7.617,7.617,0,0,0,.218-1.321c0-1.978-1.583-2.725-3.651-2.725a7.661,7.661,0,0,0-4.969,2.507l-3.167,14.292H421.9l6.466-29.333h5.585L431.578,203.4a10.111,10.111,0,0,1,7.082-3.3c4.09,0,6.642,2.157,6.642,5.411a12.2,12.2,0,0,1-.221,1.76l-3.21,14.6Z"/><path class="cls-4" d="M461.746,221.87,464.56,209.2a7.3,7.3,0,0,0,.219-1.408c0-1.978-1.584-2.725-3.254-2.725a7.914,7.914,0,0,0-5.366,2.462l-3.168,14.337h-5.584l4.706-21.242H457.7l-.615,2.77a10.111,10.111,0,0,1,7.081-3.3c4.091,0,6.642,2.157,6.642,5.411a13.042,13.042,0,0,1-.221,1.76l-3.254,14.6Z"/><path class="cls-4" d="M473.66,212.765A12.444,12.444,0,0,1,485.931,200.1c6.771,0,10.554,4.136,10.554,9.678A12.44,12.44,0,0,1,484.171,222.4C477.4,222.4,473.66,218.308,473.66,212.765Zm17.019-2.725c0-3.078-1.846-4.969-4.924-4.969-3.783,0-6.334,3.606-6.334,7.387a4.577,4.577,0,0,0,4.971,4.971C488.13,217.429,490.679,213.865,490.679,210.04Z"/><path class="cls-4" d="M498.108,221.87l6.466-29.333h5.585l-6.466,29.333Z"/><path class="cls-4" d="M510.027,212.765A12.442,12.442,0,0,1,522.3,200.1c6.773,0,10.556,4.136,10.556,9.678A12.442,12.442,0,0,1,520.536,222.4C513.765,222.4,510.027,218.308,510.027,212.765Zm17.02-2.725c0-3.078-1.847-4.969-4.927-4.969-3.783,0-6.332,3.606-6.332,7.387a4.577,4.577,0,0,0,4.969,4.971C524.5,217.429,527.047,213.865,527.047,210.04Z"/><path class="cls-4" d="M533.155,226.8l3.254-3.738c1.365,1.892,4.135,2.857,6.9,2.857,2.6,0,5.059-1.186,6.027-5.5l.439-1.936a8.387,8.387,0,0,1-6.51,3.209c-4.265,0-8-2.462-8-8.62,0-6.463,4.088-12.974,10.993-12.974a8.864,8.864,0,0,1,6.861,3.344l.618-2.815h5.629l-4.4,19.792c-1.76,8.047-6.994,10.07-11.567,10.07C539.224,230.49,535.662,229.522,533.155,226.8ZM550.7,214.307l1.5-6.6a5.889,5.889,0,0,0-5.188-2.638c-3.475,0-5.937,3.078-5.937,6.905a4.5,4.5,0,0,0,4.837,4.748A6.554,6.554,0,0,0,550.7,214.307Z"/><path class="cls-4" d="M559.54,225.124a5.952,5.952,0,0,0,2.154.352,2.873,2.873,0,0,0,2.639-1.494l1.32-1.981-3.783-21.373h5.806l2.244,14.778,8.883-14.778h6.155l-15.48,24.716c-2.331,3.783-4.706,5.146-8.223,5.146a11.384,11.384,0,0,1-3.562-.529Z"/><path class="cls-4" d="M580.339,219.1a3.941,3.941,0,0,1,3.915-3.87,3.247,3.247,0,0,1,3.209,3.3,3.9,3.9,0,0,1-3.87,3.869A3.286,3.286,0,0,1,580.339,219.1Z"/><path class="cls-4" d="M603.028,221.87l6.466-29.333h14.249c5.1,0,7.96,3.3,7.96,7.036a7.75,7.75,0,0,1-6.684,7.652,5.957,5.957,0,0,1,4.222,5.937c0,4.091-2.859,8.708-10.2,8.708ZM623,212.634a2.926,2.926,0,0,0-3.211-2.991h-7.829l-1.494,6.818h8.091C621.368,216.461,623,214.7,623,212.634Zm2.023-12.006a2.807,2.807,0,0,0-2.991-2.725H614.6l-1.408,6.376h7.873C624.051,204.279,625.019,202.343,625.019,200.628Z"/><path class="cls-4" d="M632.051,221.87l6.466-29.333H644.1l-6.465,29.333Z"/><path class="cls-4" d="M643.968,212.765A12.444,12.444,0,0,1,656.239,200.1c6.771,0,10.554,4.136,10.554,9.678A12.44,12.44,0,0,1,654.479,222.4C647.706,222.4,643.968,218.308,643.968,212.765Zm17.019-2.725c0-3.078-1.847-4.969-4.924-4.969-3.783,0-6.335,3.606-6.335,7.387a4.578,4.578,0,0,0,4.972,4.971C658.438,217.429,660.987,213.865,660.987,210.04Z"/><path class="cls-4" d="M669.252,212.723A12.374,12.374,0,0,1,681.611,200.1c4.353,0,7.168,1.76,8.62,4.18l-4.178,3.21a5.024,5.024,0,0,0-4.442-2.418c-4,0-6.685,3.386-6.685,7.387,0,3.211,2.376,4.971,5.322,4.971a5.9,5.9,0,0,0,4.443-2.112l3.033,3.738a10.986,10.986,0,0,1-8.047,3.343C673.343,222.4,669.252,218.529,669.252,212.723Z"/><path class="cls-4" d="M704.346,221.87l-3.914-8.313-3.3,2.86-1.189,5.453H690.36l6.466-29.333h5.584l-3.825,17.195,9.852-9.1h7.123l-10.553,9.631,6.111,11.611Z"/><path class="cls-4" d="M714.456,212.723A12.374,12.374,0,0,1,726.814,200.1c4.354,0,7.168,1.76,8.62,4.18l-4.177,3.21a5.027,5.027,0,0,0-4.443-2.418c-4,0-6.684,3.386-6.684,7.387,0,3.211,2.375,4.971,5.322,4.971a5.9,5.9,0,0,0,4.442-2.112l3.034,3.738a10.986,10.986,0,0,1-8.047,3.343C718.547,222.4,714.456,218.529,714.456,212.723Z"/><path class="cls-4" d="M749.945,221.87l2.772-12.753a7.623,7.623,0,0,0,.219-1.321c0-1.978-1.584-2.725-3.651-2.725a7.666,7.666,0,0,0-4.97,2.507l-3.167,14.292h-5.584l6.465-29.333h5.585L745.239,203.4a10.111,10.111,0,0,1,7.081-3.3c4.09,0,6.642,2.157,6.642,5.411a12.2,12.2,0,0,1-.221,1.76l-3.209,14.6Z"/><path class="cls-4" d="M779.8,203.443l.571-2.815H786L781.3,221.87h-5.629l.616-2.639a8.006,8.006,0,0,1-6.377,3.167c-4.837,0-8.091-3.167-8.091-8.8,0-6.421,3.958-13.5,11.214-13.5A8.027,8.027,0,0,1,779.8,203.443Zm-12.137,9.015a4.623,4.623,0,0,0,4.7,4.971,6.315,6.315,0,0,0,4.883-2.507l1.628-7.389a5.873,5.873,0,0,0-4.969-2.462C770.261,205.071,767.667,208.543,767.667,212.458Z"/><path class="cls-4" d="M786.838,221.87l4.706-21.242h5.585l-4.706,21.242Zm5.322-26.387A3.789,3.789,0,0,1,795.9,191.7a2.9,2.9,0,0,1,3.033,2.859,3.8,3.8,0,0,1-3.78,3.783A2.885,2.885,0,0,1,792.16,195.483Z"/><path class="cls-4" d="M812.3,221.87l2.815-12.666a7.3,7.3,0,0,0,.221-1.408c0-1.978-1.584-2.725-3.256-2.725a7.909,7.909,0,0,0-5.364,2.462l-3.167,14.337h-5.585l4.706-21.242h5.585l-.616,2.77a10.107,10.107,0,0,1,7.081-3.3c4.088,0,6.64,2.157,6.64,5.411a12.728,12.728,0,0,1-.221,1.76l-3.254,14.6Z"/></g></g></svg>