<svg
	xmlns="http://www.w3.org/2000/svg" viewBox="0 0 766.08 131.04">
	<g fill="none">
		<path fill="#fff" d="M167.298 91.764v-66.24h48.168v13.248h-33.48v14.184h32.616v13.032h-32.616v25.704h-14.688zM238.218 92.556c-7.272 0-12.24-1.368-14.976-4.032-2.736-2.736-4.032-6.552-4.032-11.592 0-6.912 2.448-11.592 7.416-14.04 4.968-2.448 13.248-3.672 25.056-3.672h2.088c-.072-2.52-.72-4.248-1.944-5.328s-3.96-1.584-8.064-1.584c-5.328 0-10.224 1.368-14.688 4.104l-6.984-10.296c2.232-1.512 5.472-2.88 9.72-4.176 4.176-1.296 8.712-1.944 13.464-1.944 6.048 0 10.584.72 13.824 2.16 3.168 1.44 5.328 3.528 6.48 6.264 1.152 2.736 1.728 6.624 1.728 11.736v15.336c0 2.088.216 3.384.648 3.888.432.504 1.656.792 3.744.792V91.62c-.864.216-2.88.36-5.904.36-2.736 0-4.824-.36-6.192-1.008-1.368-.72-2.52-2.016-3.456-3.96-2.952 3.672-8.856 5.544-17.928 5.544zm2.736-11.304c4.392 0 7.632-.864 9.648-2.52 2.016-1.656 3.024-4.32 3.024-8.064v-1.872h-1.152c-6.048 0-10.44.216-13.248.648-2.808.432-4.608 1.08-5.472 1.944-.864.864-1.296 2.304-1.296 4.32 0 1.944.648 3.384 1.872 4.248 1.296.864 3.528 1.296 6.624 1.296zM303.522 92.556c-9.36 0-15.696-1.8-19.08-5.472-3.384-3.6-5.04-9.936-5.04-18.936v-27h14.04v27.288c0 1.8 0 3.096.072 4.032.072.864.288 1.944.648 3.168.36 1.224.864 2.088 1.584 2.664.72.576 1.656 1.08 3.024 1.44 1.296.432 2.952.648 4.896.648 1.872 0 3.528-.216 4.824-.648 1.296-.432 2.304-.936 3.024-1.512.648-.576 1.224-1.512 1.584-2.664.36-1.224.576-2.232.648-3.168.072-.936.072-2.304.072-4.032V41.22h13.752v26.928c0 4.536-.36 8.28-1.008 11.16-.72 2.952-1.944 5.4-3.744 7.488-1.8 2.088-4.248 3.6-7.344 4.464-3.168.864-7.128 1.296-11.952 1.296zM361.77 92.556c-5.04 0-9.36-.648-12.816-1.944-3.456-1.296-6.12-3.168-7.992-5.688a24.074 24.074 0 01-3.96-8.208c-.792-2.952-1.152-6.408-1.152-10.44 0-3.96.36-7.488 1.152-10.44.72-2.952 2.088-5.688 3.96-8.208 1.872-2.52 4.608-4.464 8.208-5.76 3.6-1.296 7.992-1.944 13.248-1.944 8.784 0 15.696 2.736 20.52 8.208l-9.864 9.288c-2.952-3.096-6.552-4.68-10.728-4.68-4.68 0-7.92 1.152-9.72 3.456-1.8 2.304-2.664 5.76-2.664 10.368 0 4.68.864 8.136 2.664 10.512 1.728 2.376 5.04 3.528 9.864 3.528 4.176 0 7.992-1.656 11.448-4.896l8.928 8.568c-3.168 2.952-6.264 5.04-9.288 6.264-3.024 1.224-6.984 2.016-11.808 2.016zM412.89 92.7c-5.328 0-9.72-.648-13.32-2.016-3.6-1.368-6.264-3.312-8.136-5.832a23.633 23.633 0 01-3.816-8.208c-.72-2.952-1.08-6.336-1.08-10.296 0-3.024.216-5.76.648-8.208a23.937 23.937 0 012.448-7.128c1.224-2.304 2.736-4.248 4.68-5.832 1.872-1.584 4.464-2.808 7.56-3.744 3.168-.936 6.84-1.44 11.016-1.44 3.6 0 6.768.36 9.432 1.152 2.664.792 4.752 1.872 6.408 3.312 1.584 1.44 2.952 3.096 3.96 5.112a20.94 20.94 0 012.088 6.408c.36 2.304.576 4.824.72 7.488.144 2.664.144 5.4-.072 8.208h-35.208c.432 3.24 1.584 5.616 3.456 7.272 1.872 1.584 5.04 2.448 9.288 2.448 6.408 0 11.736-1.584 15.912-4.68l7.056 9.144c-3.312 2.448-6.696 4.176-10.152 5.256-3.6 1.08-7.848 1.584-12.888 1.584zm-.504-40.968c-4.104 0-7.056.864-8.928 2.52-1.872 1.656-2.952 4.176-3.312 7.488h22.464c-.216-3.384-1.008-5.904-2.304-7.56-1.296-1.656-3.96-2.448-7.92-2.448zM440.106 53.1V41.148h8.928l2.448-12.312 10.872-2.232v14.544h11.952V53.1h-11.952v20.808c0 2.232.36 3.744 1.152 4.68.792.936 2.592 1.368 5.328 1.368h5.472v11.736c-1.368.144-4.176.144-8.28.144-6.696 0-11.304-1.224-13.824-3.6-2.52-2.448-3.816-6.48-3.816-12.312V53.028h-8.28z"/>
		<path fill="#e7004c" d="M514.842 92.7c-21.744 0-32.616-11.376-32.616-34.128 0-11.376 2.808-19.944 8.496-25.632 5.688-5.688 13.824-8.568 24.48-8.568 9.576 0 17.28 2.736 23.112 8.28l-5.04 5.04c-4.896-4.392-10.944-6.624-18.216-6.624-17.208 0-25.848 9.144-25.848 27.504 0 18.288 8.64 27.432 25.92 27.432 4.536 0 8.208-.576 11.016-1.8 2.808-1.224 5.328-2.88 7.704-5.04l4.896 4.752c-5.832 5.904-13.824 8.784-23.904 8.784zM548.682 91.764v-48.96l5.328-.36.72 6.624c1.008-2.016 3.024-3.744 6.048-5.112 3.024-1.368 6.696-2.088 11.016-2.16v6.768c-10.872 0-16.344 5.544-16.344 16.56v26.64zM585.186 106.668c-2.232 0-3.672 0-4.32-.072v-5.544h3.816c2.232 0 3.96-.36 5.04-1.152 1.08-.72 2.016-2.088 2.664-3.96l1.8-4.536-19.296-48.96h7.128l15.696 41.04 15.552-41.04h6.984L599.01 96.66c-1.368 3.6-3.096 6.192-5.112 7.704-2.016 1.512-4.968 2.304-8.712 2.304zM628.098 106.452v-63.72l5.328-.36.648 5.904c1.368-2.448 3.6-4.248 6.624-5.328 3.096-1.152 7.344-1.728 12.888-1.728 7.776 0 13.248 2.16 16.416 6.552 3.096 4.392 4.68 10.8 4.68 19.152 0 8.28-1.584 14.616-4.752 19.008-3.168 4.392-8.712 6.552-16.56 6.552-5.328 0-9.36-.504-12.24-1.584-2.88-1.008-4.968-2.736-6.264-5.04v20.52h-6.768zm24.192-20.088c5.76 0 9.792-1.584 12.096-4.752 2.304-3.168 3.456-7.992 3.456-14.4 0-6.48-1.152-11.376-3.384-14.616S658.122 47.7 652.29 47.7c-6.336 0-10.8 1.44-13.464 4.32-2.664 2.88-3.96 7.92-3.96 15.12 0 7.2 1.296 12.24 3.96 15.048 2.592 2.808 7.128 4.176 13.464 4.176zM681.882 48.564v-6.192h9l1.152-14.832 5.328-1.008v15.84h13.608v6.192h-13.608v29.664c0 2.592.432 4.536 1.368 5.688.936 1.224 2.952 1.8 6.12 1.8h6.048v5.976c-.504.072-2.88.072-7.128.072-5.256 0-8.712-1.008-10.512-3.024-1.728-2.016-2.664-5.256-2.664-9.792V48.492h-8.712zM759.786 86.364c-3.816 4.248-9.864 6.336-18.216 6.336s-14.4-2.088-18.144-6.336c-3.744-4.248-5.616-10.728-5.616-19.368 0-8.712 1.872-15.192 5.616-19.368 3.744-4.248 9.792-6.336 18.144-6.336 8.352 0 14.4 2.088 18.216 6.336 3.816 4.248 5.688 10.728 5.688 19.368 0 8.712-1.944 15.12-5.688 19.368zm-31.176-4.608c2.664 3.24 6.984 4.824 13.032 4.824s10.368-1.584 13.032-4.824c2.664-3.24 3.96-8.064 3.96-14.544 0-6.552-1.296-11.448-3.96-14.688-2.664-3.24-6.984-4.824-13.032-4.824s-10.368 1.584-13.032 4.824c-2.664 3.24-3.96 8.136-3.96 14.688-.072 6.48 1.296 11.304 3.96 14.544z"/>
	</g>
	<g fill="none">
		<path fill="#e7004c" d="M114.29 22.254C104.103 10.482 90.024 2.734 74.746.52c-.3-.05-.599-.05-.898-.05v2.113V.47c-3.146 0-5.842 2.365-6.291 5.484-.5 3.471 1.897 6.741 5.392 7.244 12.282 1.811 23.565 8 31.803 17.508a52.774 52.774 0 0112.882 34.562c0 14.037-5.443 27.268-15.278 37.179-9.886 9.961-22.966 15.395-36.896 15.395-11.333 0-22.118-3.623-31.204-10.414-1.099-.856-2.397-1.258-3.795-1.258a6.368 6.368 0 00-5.092 2.566c-2.097 2.817-1.498 6.842 1.298 8.955 11.283 8.502 24.664 12.98 38.793 12.98 17.325 0 33.65-6.792 45.883-19.168 12.282-12.376 19.022-28.777 19.022-46.235-.05-15.847-5.742-31.141-16.077-43.014zm-4.494 87.69c-11.883 11.973-27.61 18.513-44.385 18.513-13.63 0-26.611-4.327-37.545-12.527-1.847-1.409-2.247-4.075-.849-5.987.85-1.107 2.097-1.71 3.395-1.71.899 0 1.748.251 2.547.855 9.436 7.093 20.67 10.867 32.452 10.867 14.529 0 28.159-5.685 38.394-16.049 10.285-10.364 15.926-24.098 15.926-38.688 0-13.231-4.743-26.01-13.38-35.971-8.537-9.86-20.32-16.35-33.101-18.212-2.297-.352-3.895-2.515-3.595-4.83.3-2.113 2.097-3.672 4.194-3.672.2 0 .399 0 .599.05 14.778 2.163 28.358 9.61 38.244 21.03 9.985 11.52 15.477 26.26 15.477 41.605 0 16.904-6.54 32.802-18.373 44.725z"/>
		<path fill="#fff" d="M23.522 96.661c-6.79-9.156-10.334-20.023-10.334-31.443 0-3.471.349-6.993 1.048-10.414a4.292 4.292 0 014.194-3.42h38.743c3.395 0 6.141-2.869 6.141-6.39 0-3.522-2.746-6.39-6.14-6.39h-34.4a1.284 1.284 0 01-1.149-.704c-.1-.201-.35-.754.05-1.408 1.348-2.063 2.846-4.076 4.444-5.887 8.238-9.508 19.521-15.696 31.803-17.507 3.445-.503 5.891-3.773 5.392-7.245C62.864 2.734 60.17.37 57.024.37c-.3 0-.6 0-.9.05-15.277 2.214-29.356 9.962-39.541 21.734C6.248 34.077.606 49.32.606 65.118c0 14.187 4.443 27.72 12.881 39.09a6.368 6.368 0 005.093 2.566 6.367 6.367 0 003.794-1.258 6.403 6.403 0 002.496-4.226c.1-1.61-.349-3.27-1.348-4.629zm-2.546 7.245a4.31 4.31 0 01-2.546.855c-1.298 0-2.546-.603-3.395-1.71C6.897 92.083 2.603 79.003 2.603 65.218c0-15.294 5.492-30.085 15.477-41.606 9.886-11.42 23.466-18.866 38.244-21.029.2-.05.4-.05.6-.05a4.248 4.248 0 014.193 3.672c.35 2.315-1.248 4.478-3.594 4.83-12.782 1.862-24.564 8.351-33.102 18.212a52.977 52.977 0 00-4.593 6.138c-1.498 2.314.15 5.383 2.896 5.383h34.4c2.246 0 4.043 1.912 4.043 4.276 0 2.365-1.797 4.276-4.044 4.276H18.38a6.33 6.33 0 00-6.24 5.132 55.554 55.554 0 00-1.05 10.816c0 11.873 3.745 23.193 10.785 32.701 1.348 1.862.948 4.528-.899 5.937z"/>
		<g fill="#8b5cf6">
			<path d="M101.259 38.605H74.548c-3.495 0-6.341 2.867-6.341 6.389 0 3.521 2.846 6.39 6.34 6.39h26.712c3.495 0 6.34-2.869 6.34-6.39 0-3.522-2.845-6.39-6.34-6.39zm0 10.665H74.548c-2.347 0-4.244-1.912-4.244-4.276 0-2.365 1.897-4.276 4.244-4.276h26.71c2.347 0 4.244 1.911 4.244 4.276-.05 2.364-1.947 4.276-4.243 4.276zM26.218 57.621c-3.494 0-6.34 2.868-6.34 6.39 0 12.577 4.693 24.45 13.28 33.355 8.588 8.955 20.07 13.935 32.253 13.935 12.182 0 23.665-4.93 32.253-13.935 8.537-8.905 13.28-20.778 13.28-33.355 0-3.522-2.845-6.39-6.34-6.39zm82.58 6.39c0 12.024-4.494 23.343-12.682 31.845-8.188 8.553-19.122 13.282-30.755 13.282s-22.567-4.729-30.755-13.282c-8.188-8.502-12.681-19.821-12.681-31.845 0-2.365 1.897-4.277 4.244-4.277h78.385c2.346 0 4.244 1.912 4.244 4.277z"/>
			<path d="M65.411 100.636c17.924 0 32.702-14.187 34.75-32.349H30.661c2.047 18.162 16.825 32.349 34.75 32.349zM87.28 89.719c-6.041 5.685-13.78 8.804-21.868 8.804s-15.827-3.12-21.868-8.804c-5.442-5.081-9.087-11.873-10.385-19.319h64.556c-1.348 7.395-4.993 14.187-10.435 19.319zM84.633 23.763c-5.242-3.622-12.082-5.584-19.272-5.584-7.24 0-14.13 2.012-19.371 5.685-1.848 1.308-2.647 3.622-1.948 5.785a5.098 5.098 0 004.893 3.623l32.902-.05c2.247 0 4.194-1.46 4.893-3.623.599-2.213-.2-4.528-2.097-5.836zm0 5.132c-.4 1.258-1.548 2.113-2.846 2.113l-32.902.05c-1.298 0-2.446-.855-2.846-2.113-.399-1.258.1-2.616 1.149-3.37 4.893-3.422 11.383-5.283 18.173-5.283 6.79 0 13.23 1.861 18.074 5.232 1.098.755 1.597 2.113 1.198 3.37z"/>
		</g>
	</g>
</svg>