<svg id="logo" data-name="logo" xmlns="http://www.w3.org/2000/svg" viewBox="0 0 303.99 80.27"><title>log</title><path d="M656,722.7l-2.77-5.55H636.37l-2.89,5.55H629v-.08L644.86,693h.36l15.32,29.67v.08Zm-17.69-9.49h13L645,700.34Z" transform="translate(-556.93 -668.05)" style="fill:#fff"/><path d="M662.27,700.63h4v13.22c0,3.54,2.66,5.83,6.36,5.83s6.23-2.25,6.23-5.75v-13.3h4V714.3a8.59,8.59,0,0,1-2.78,6.59,10.65,10.65,0,0,1-7.47,2.53,10.8,10.8,0,0,1-7.6-2.57,8.68,8.68,0,0,1-2.78-6.63Z" transform="translate(-556.93 -668.05)" style="fill:#fff"/><path d="M685.47,704.33v-3.7H688v-5.07l4-1.53v6.6h4.7v3.7H692v9.6c0,2.58,1.32,3.7,3.46,4.87l1.68,1-1.84,3.38-1.77-1c-2.74-1.41-5.55-3.58-5.55-7.48V704.33Z" transform="translate(-556.93 -668.05)" style="fill:#fff"/><path d="M709.52,699.9c6.92,0,12,5,12,11.62s-5.14,11.66-12,11.66-11.94-5-11.94-11.66,5.1-11.62,11.94-11.62m5.67,6a7.58,7.58,0,0,0-5.63-2.29,7.76,7.76,0,0,0-7.92,7.92,7.82,7.82,0,0,0,2.25,5.67,7.7,7.7,0,0,0,5.67,2.29,7.55,7.55,0,0,0,5.63-2.29,7.82,7.82,0,0,0,2.25-5.67,7.67,7.67,0,0,0-2.25-5.63" transform="translate(-556.93 -668.05)" style="fill:#fff"/><polygon points="167.91 54.65 167.91 25.1 191.43 25.1 191.43 31.37 174.83 31.37 174.83 36.8 188.58 36.8 188.58 43.07 174.87 43.07 174.87 54.65 167.91 54.65" style="fill:#fff"/><path d="M765.21,722.7v-3.14a9,9,0,0,1-7.51,3.62c-6.28,0-10.94-4.9-10.94-11.62s4.66-11.7,11.06-11.7A8.83,8.83,0,0,1,765,703v-2.53h6.2V722.7Zm-2.05-15.36a5.55,5.55,0,0,0-4.1-1.65,5.65,5.65,0,0,0-4.14,1.65,5.72,5.72,0,0,0-1.65,4.18,5.86,5.86,0,0,0,1.65,4.22,5.53,5.53,0,0,0,4.14,1.69,5.43,5.43,0,0,0,4.1-1.69,5.82,5.82,0,0,0,1.65-4.22,5.68,5.68,0,0,0-1.65-4.18" transform="translate(-556.93 -668.05)" style="fill:#fff"/><path d="M775,700.51h6.35v12.66a4.19,4.19,0,0,0,4.54,4.34c2.74,0,4.47-1.64,4.47-4.22V700.51h6.35V714.1c0,5.42-4.14,9.32-10.86,9.32S775,719.48,775,714Z" transform="translate(-556.93 -668.05)" style="fill:#fff"/><path d="M811.42,699.82a11.45,11.45,0,0,1,6.63,1.85,12.28,12.28,0,0,1,4.06,4.38l-5.5,2.94a5.77,5.77,0,0,0-5.11-3.34,5.43,5.43,0,0,0-4.1,1.69,5.81,5.81,0,0,0-1.65,4.18,5.67,5.67,0,0,0,1.61,4.14,5.43,5.43,0,0,0,4.1,1.69,5.63,5.63,0,0,0,5.06-3l5.75,2.57a12,12,0,0,1-11,6.27c-6.92,0-12.06-5-12.06-11.74s5.22-11.62,12.18-11.62" transform="translate(-556.93 -668.05)" style="fill:#fff"/><path d="M846,717.88a12.53,12.53,0,0,1-10.69,5.3c-6.68,0-12.31-4.18-12.31-11.7,0-6.67,5.23-11.66,12.06-11.66s11.62,4.55,11.62,12v1.89H829.84a5.78,5.78,0,0,0,5.75,3.9,6.77,6.77,0,0,0,5.71-3Zm-16.28-8.81h10.73a5.21,5.21,0,0,0-5.27-3.9,5.48,5.48,0,0,0-5.46,3.9" transform="translate(-556.93 -668.05)" style="fill:#fff"/><path d="M847.81,706.09v-5.58h2.09V696.2l6.36-2.17v6.48h3.94v5.58h-3.94v6.72c0,2.21,1,3.26,2.93,4.34l1.73,1L858,723.34l-1.89-1c-2.74-1.41-6.2-3.58-6.2-8.2v-8Z" transform="translate(-556.93 -668.05)" style="fill:#fff"/><path d="M577.22,740.2l-2,3.92c-1.14-.37-2.26-.79-3.35-1.26l2-3.86a33.06,33.06,0,0,0,3.38,1.2" transform="translate(-556.93 -668.05)" style="fill:#ecb611"/><path d="M613.27,670l-6.22,11.85a31.32,31.32,0,0,0-2.94-2l6.15-11.75.46.27c.87.52,1.72,1.08,2.55,1.66" transform="translate(-556.93 -668.05)" style="fill:#ecb611"/><path d="M569.05,736.51l-6,11.81-.58-.35c-.83-.5-1.64-1-2.43-1.58l6.11-11.95a33.74,33.74,0,0,0,2.94,2.07" transform="translate(-556.93 -668.05)" style="fill:#ecb611"/><path d="M601.33,673.51l-2,3.87A34.77,34.77,0,0,0,596,676.2l2-3.92c1.15.36,2.27.77,3.37,1.23" transform="translate(-556.93 -668.05)" style="fill:#ecb611"/><path d="M587.16,738h-.43a29.6,29.6,0,0,1-4.24-.3,30.26,30.26,0,0,1-8-2.33,28.41,28.41,0,0,1-3.19-1.67q-1-.6-1.95-1.29l1.9-3.64,3.81-7.62,1.76-3.41.16-.31,1.83,3.72.35.7,3,6.1,2.19,4.43Z" transform="translate(-556.93 -668.05)" style="fill:#ecb611"/><path d="M605.33,731.51a29.41,29.41,0,0,1-10,5.27l-7.38-14.29-2.23-4.33-3.13-6.06-1.4-2.71,6.77-13.12.06.12,3.16,6.41,2.19,4.45,6.88,13.94Z" transform="translate(-556.93 -668.05)" style="fill:#ecb611"/><path d="M616.52,708.25a29.6,29.6,0,0,1-5.59,17.36l-22.54-43.67-.34-.66-.35.66-10.55,19.7L575,697.55l-.93-1.8-3-5.89-1,1.86-3,5.65,3,6,1,2,2,4L563.57,727a29.8,29.8,0,0,1,23-48.55h.14c.94,0,1.86,0,2.77.12l.85.1a29.37,29.37,0,0,1,8.54,2.38,26.78,26.78,0,0,1,3.19,1.66,29.78,29.78,0,0,1,14.44,25.54" transform="translate(-556.93 -668.05)" style="fill:#ecb611"/></svg>